<?xml version="1.0"?>
<svg xmlns="http://www.w3.org/2000/svg" xmlns:xlink="http://www.w3.org/1999/xlink" xmlns:svgjs="http://svgjs.com/svgjs" version="1.1" width="512" height="512" x="0" y="0" viewBox="0 0 512 512" style="enable-background:new 0 0 512 512" xml:space="preserve" class=""><g><linearGradient xmlns="http://www.w3.org/2000/svg" id="SVGID_1_" gradientUnits="userSpaceOnUse" x1="256" x2="256" y1="481" y2="31"><stop stop-opacity="1" stop-color="#c300ff" offset="0"/><stop stop-opacity="1" stop-color="#ff5400" offset="0.749034749034749"/><stop stop-opacity="1" stop-color="#ff5400" offset="1"/></linearGradient><g xmlns="http://www.w3.org/2000/svg"><g><g><path d="m452 233.806v-187.806c0-8.257-6.74-15-15-15h-422c-8.219 0-15 6.736-15 15v270c0 8.284 6.716 15 15 15h227.838c-.547 4.927-.838 9.93-.838 15 0 74.439 60.561 135 135 135s135-60.561 135-135c0-46.708-23.846-87.947-60-112.194zm-61.807-172.806-163.234 116.596-164.789-116.596zm-360.193 240v-226.012l188.336 133.257c2.596 1.837 5.63 2.755 8.664 2.755 3.056 0 6.111-.932 8.719-2.794l186.281-133.058v143.574c-14.082-4.994-29.228-7.722-45-7.722-58.667 0-108.704 37.62-127.278 90zm347 150c-57.897 0-105-47.103-105-105s47.103-105 105-105 105 47.103 105 105-47.103 105-105 105zm60-120h-45v-45c0-8.284-6.716-15-15-15s-15 6.716-15 15v60c0 8.284 6.716 15 15 15h60c8.284 0 15-6.716 15-15s-6.716-15-15-15z" fill="url(#SVGID_1_)" data-original="url(#SVGID_1_)" style=""/></g></g></g></g></svg>
