<?xml version="1.0"?>
<svg xmlns="http://www.w3.org/2000/svg" xmlns:xlink="http://www.w3.org/1999/xlink" xmlns:svgjs="http://svgjs.com/svgjs" version="1.1" width="512" height="512" x="0" y="0" viewBox="0 0 509.995 509.995" style="enable-background:new 0 0 512 512" xml:space="preserve" class=""><g><g xmlns="http://www.w3.org/2000/svg" id="XMLID_50_"><path id="XMLID_204_" d="m98.877 98.598c11.174-1.437 189.944-24.416 201.118-25.853l15-27.754-15-44.496c-81.613-5.337-156.919 33.109-201.118 98.103z" fill="#fe695b" data-original="#fee05b" style="" class=""/><path id="XMLID_184_" d="m98.877 98.598c-116.552 79.217-132.246 242.992-35.448 342.972-7.358 8.274-53.44 60.093-60.847 68.422h222.413l15-225-15-225c-45.285-.001-88.901 13.311-126.118 38.606z" fill="#ff7b1e" data-original="#8ee26b" style="" class=""/><path id="XMLID_187_" d="m299.995.495v72.25l111.393 338.365c61.797-42.025 98.607-111.339 98.607-186.118 0-120.56-93.966-216.909-210-224.497z" fill="#ffbe4b" data-original="#fec258" style="" class=""/><path id="XMLID_179_" d="m224.995 59.991v450c124.837 0 225-101.176 225-225 0-124.349-100.632-225-225-225z" fill="#ff5321" data-original="#00cb75" style="" class=""/><g id="XMLID_176_"><g><path id="XMLID_259_" d="m224.995 359.991c-16.333 0-118.559 0-135 0 0-10.492 0-19.508 0-30h135l15 15z" fill="#ffffff" data-original="#e6f2ff" style="" class=""/></g></g><g id="XMLID_174_"><g><path id="XMLID_254_" d="m224.995 299.991c-16.333 0-118.559 0-135 0 0-10.492 0-19.508 0-30h135l15 15z" fill="#ffffff" data-original="#e6f2ff" style="" class=""/></g></g><g id="XMLID_201_"><g><path id="XMLID_99_" d="m224.995 329.991h134.999v30h-134.999z" fill="#ffffff" data-original="#ccddff" style="" class=""/></g></g><g id="XMLID_173_"><g><path id="XMLID_98_" d="m224.995 269.991h134.999v30h-134.999z" fill="#ffffff" data-original="#ccddff" style="" class=""/></g></g><g id="XMLID_171_"><g><path id="XMLID_250_" d="m89.995 209.991h135v30h-135z" fill="#ffffff" data-original="#e6f2ff" style="" class=""/></g></g></g></g></svg>
