<svg id="Capa_1" enable-background="new 0 0 512 512" height="512" viewBox="0 0 512 512" width="512" xmlns="http://www.w3.org/2000/svg" xmlns:xlink="http://www.w3.org/1999/xlink"><linearGradient id="SVGID_1_" gradientTransform="matrix(1 0 0 -1 -561.6 -4458.99)" gradientUnits="userSpaceOnUse" x1="950.795" x2="581.219" y1="-4903.995" y2="-4479.327"><stop offset="0" stop-color="#d2deff" stop-opacity="0"/><stop offset="1" stop-color="#b7c5ff"/></linearGradient><linearGradient id="SVGID_2_" gradientUnits="userSpaceOnUse" x1="252.779" x2="252.779" y1="359.054" y2="119.11"><stop offset="0" stop-color="#ff4d4d" stop-opacity=".4"/><stop offset="1" stop-color="#ff4d4d" stop-opacity="0"/></linearGradient><g><g><path d="m338.919 70.183c-1.369 0-2.734.012-4.096.037-33.932.616-66.631-11.72-93.007-33.075-23.389-18.936-53.236-30.21-85.724-29.998-74.135.484-135.234 63.074-134.007 137.2.33 19.96 4.996 38.864 13.096 55.813 13.801 28.879 10.825 63.235-8.352 88.861-7.92 10.584-14.402 22.515-19.061 35.605-24.826 69.757 11.848 147.296 81.551 172.272 70.982 25.434 148.823-12.162 173.19-83.256 1.805-5.266 3.265-10.567 4.393-15.878 7.162-33.729 36.586-57.876 71.067-57.732.317.001.634.002.951.002 95.59 0 173.08-60.408 173.08-134.925s-77.492-134.926-173.081-134.926z" fill="url(#SVGID_1_)"/><g><path d="m245.275 70.512h-3v-3c0-2.761-2.239-5-5-5s-5 2.239-5 5v3h-3c-2.761 0-5 2.239-5 5s2.239 5 5 5h3v3c0 2.761 2.239 5 5 5s5-2.239 5-5v-3h3c2.761 0 5-2.239 5-5s-2.238-5-5-5z" fill="#ff6c6c"/><path d="m373.82 407.219h-3v-3c0-2.761-2.239-5-5-5s-5 2.239-5 5v3h-3c-2.761 0-5 2.239-5 5s2.239 5 5 5h3v3c0 2.761 2.239 5 5 5s5-2.239 5-5v-3h3c2.761 0 5-2.239 5-5s-2.239-5-5-5z" fill="#ff9d33"/><path d="m142.999 407.219h-3v-3c0-2.761-2.239-5-5-5s-5 2.239-5 5v3h-3c-2.761 0-5 2.239-5 5s2.239 5 5 5h3v3c0 2.761 2.239 5 5 5s5-2.239 5-5v-3h3c2.761 0 5-2.239 5-5s-2.239-5-5-5z" fill="#8383ff"/><path d="m415.542 439.563c-1.28 0-2.559-.488-3.536-1.464l-4.464-4.464-4.464 4.464c-1.953 1.952-5.118 1.952-7.071 0-1.953-1.953-1.953-5.119 0-7.071l8-8c1.953-1.952 5.118-1.952 7.071 0l8 8c1.953 1.953 1.953 5.119 0 7.071-.976.976-2.256 1.464-3.536 1.464z" fill="#ff6c6c"/><path d="m198.458 63.065c-1.28 0-2.559-.488-3.536-1.464l-4.464-4.464-4.464 4.464c-1.953 1.952-5.118 1.952-7.071 0-1.953-1.953-1.953-5.119 0-7.071l8-8c1.953-1.952 5.118-1.952 7.071 0l8 8c1.953 1.953 1.953 5.119 0 7.071-.976.976-2.256 1.464-3.536 1.464z" fill="#8383ff"/><g><path d="m214.099 350.503h77.36v99.06h-77.36z" fill="#ebebff"/><path d="m214.099 350.503h77.36v46.05h-77.36z" fill="#d9d9ff"/><path d="m312.341 380.233h-119.125c-5.523 0-10-4.477-10-10v-22.648h139.125v22.648c0 5.523-4.477 10-10 10z" fill="#ff6c6c"/><g><path d="m433.823 359.054h-362.088c-8.284 0-15-6.716-15-15v-209.944c0-8.284 6.716-15 15-15h362.088c8.284 0 15 6.716 15 15v209.944c0 8.284-6.716 15-15 15z" fill="#8383ff"/><g><path d="m448.819 134.107v184.55h-392.08v-184.55c0-8.28 6.71-15 15-15h362.08c8.29 0 15 6.72 15 15z" fill="#fff"/></g><path d="m182.459 318.657-2.34 6.87c-2.66 7.83-13.72 7.83-16.38 0l-2.34-6.87z" fill="#4d4dff"/><g fill="#ebebff"><path d="m245.279 146.407v144.38c0 5.52-4.48 10-10 10h-46.75l-6.07 17.87h-21.06l-6.08-17.87h-98.58v-164.38h178.54c5.52 0 10 4.48 10 10z"/><path d="m448.819 134.107v81.02h-97.15l-8.42 24.74c-2.66 7.82-13.72 7.82-16.38 0l-8.41-24.74h-36.62c-5.52 0-10-4.48-10-10v-86.02h161.98c8.29 0 15 6.72 15 15z"/></g></g><path d="m330.811 456.626h-156.065c-5.631 0-10.196-4.565-10.196-10.196s4.565-10.196 10.196-10.196h156.065c5.631 0 10.196 4.565 10.196 10.196.001 5.631-4.564 10.196-10.196 10.196z" fill="#4d4dff"/></g><path d="m433.823 359.054h-362.088c-8.284 0-15-6.716-15-15v-209.944c0-8.284 6.716-15 15-15h362.088c8.284 0 15 6.716 15 15v209.944c0 8.284-6.716 15-15 15z" fill="url(#SVGID_2_)"/><g><g><path d="m245.279 121.817v144.38c0 5.52-4.48 10-10 10h-46.75l-8.41 24.74c-2.66 7.83-13.72 7.83-16.38 0l-8.42-24.74h-98.97c-5.53 0-10-4.48-10-10v-144.38c0-5.52 4.47-10 10-10h178.93c5.52 0 10 4.48 10 10z" fill="#ffc599"/><path d="m106.239 142.507c0 23.9-19.38 43.28-43.28 43.28-5.89 0-11.5-1.17-16.61-3.31v-60.66c0-5.52 4.47-10 10-10h37.13c7.88 7.84 12.76 18.69 12.76 30.69z" fill="#ff9d33"/><g><g><g><path d="m167.199 161.165h49.52c2.762 0 5-2.239 5-5s-2.238-5-5-5h-49.52c-2.762 0-5 2.239-5 5s2.238 5 5 5z" fill="#8383ff"/></g><g><path d="m221.719 173.667c0 2.76-2.24 5-5 5h-134.65c-2.76 0-5-2.24-5-5s2.24-5 5-5h134.65c2.76 0 5 2.24 5 5z" fill="#8383ff"/></g><path d="m97.439 168.667c-2.97 3.91-6.59 7.29-10.69 10h-4.68c-2.76 0-5-2.24-5-5s2.24-5 5-5z" fill="#4d4dff"/></g><g><g><path d="m82.073 196.17h134.646c2.762 0 5-2.239 5-5s-2.238-5-5-5h-134.646c-2.762 0-5 2.239-5 5s2.238 5 5 5z" fill="#8383ff"/></g><g><path d="m82.073 213.673h134.646c2.762 0 5-2.239 5-5s-2.238-5-5-5h-134.646c-2.762 0-5 2.239-5 5s2.238 5 5 5z" fill="#8383ff"/></g></g></g><g><g><g><path d="m82.073 248.585h134.646c2.762 0 5-2.239 5-5s-2.238-5-5-5h-134.646c-2.762 0-5 2.239-5 5s2.238 5 5 5z" fill="#8383ff"/></g></g></g><g><circle cx="62.959" cy="126.792" fill="#ff9d33" r="43.28"/><path d="m79.573 120.986c0-9.161-7.453-16.613-16.613-16.613s-16.613 7.453-16.613 16.613c0 4.518 1.818 8.615 4.754 11.613-2.936 2.998-4.754 7.095-4.754 11.613 0 2.761 2.239 5 5 5s5-2.239 5-5c0-3.646 2.967-6.613 6.613-6.613s6.613 2.966 6.613 6.613c0 2.761 2.239 5 5 5s5-2.239 5-5c0-4.518-1.818-8.615-4.754-11.613 2.936-2.998 4.754-7.095 4.754-11.613zm-16.614-6.614c3.646 0 6.613 2.967 6.613 6.613s-2.967 6.613-6.613 6.613-6.613-2.967-6.613-6.613 2.967-6.613 6.613-6.613z" fill="#fff"/></g></g><g><g><path d="m465.099 75.847v104.69c0 5.52-4.48 10-10 10h-103.43l-8.42 24.74c-2.66 7.82-13.72 7.82-16.38 0l-8.41-24.74h-36.62c-5.52 0-10-4.48-10-10v-104.69c0-5.52 4.48-10 10-10h173.26c5.52 0 10 4.48 10 10z" fill="#ff9494"/><path d="m465.099 75.847v51.72c-4.97 1.99-10.39 3.08-16.06 3.08-23.9 0-43.28-19.38-43.28-43.28 0-7.83 2.08-15.18 5.72-21.52h43.62c5.52 0 10 4.48 10 10z" fill="#ff6c6c"/><g><g><g><path d="m350.588 107.475h-49.52c-2.762 0-5-2.239-5-5s2.238-5 5-5h49.52c2.762 0 5 2.239 5 5s-2.238 5-5 5z" fill="#fff"/></g><g><path d="m440.719 119.977c0 2.76-2.24 5-5 5h-134.65c-2.76 0-5-2.24-5-5s2.24-5 5-5h134.65c2.76 0 5 2.24 5 5z" fill="#fff"/></g><path d="m440.719 119.977c0 2.76-2.24 5-5 5h-8.11c-4.55-2.6-8.58-5.99-11.9-10h20.01c2.761 0 5 2.24 5 5z" fill="#fee"/></g><g><g><path d="m435.715 142.48h-134.646c-2.762 0-5-2.239-5-5s2.238-5 5-5h134.646c2.762 0 5 2.239 5 5s-2.239 5-5 5z" fill="#fff"/></g><g><path d="m435.715 159.983h-134.646c-2.762 0-5-2.239-5-5s2.238-5 5-5h134.646c2.762 0 5 2.239 5 5s-2.239 5-5 5z" fill="#fff"/></g></g></g></g><g><circle cx="449.039" cy="71.654" fill="#ff6c6c" r="43.28"/><path d="m437.18 77.461c-2.936 2.998-4.754 7.095-4.754 11.613 0 2.761 2.239 5 5 5s5-2.239 5-5c0-3.646 2.967-6.613 6.613-6.613s6.613 2.966 6.613 6.613c0 2.761 2.239 5 5 5s5-2.239 5-5c0-4.518-1.818-8.615-4.754-11.613 2.936-2.998 4.754-7.095 4.754-11.613 0-9.161-7.453-16.613-16.613-16.613s-16.613 7.453-16.613 16.613c-.001 4.518 1.817 8.615 4.754 11.613zm18.472-11.613c0 3.646-2.967 6.613-6.613 6.613s-6.613-2.967-6.613-6.613 2.967-6.613 6.613-6.613 6.613 2.966 6.613 6.613z" fill="#fff"/></g></g></g><g><g><g><path d="m370.82 270.966h49.52c2.762 0 5-2.239 5-5s-2.238-5-5-5h-49.52c-2.762 0-5 2.239-5 5s2.238 5 5 5z" fill="#ff6c6c"/></g><g><path d="m343.82 288.469h76.52c2.762 0 5-2.239 5-5s-2.238-5-5-5h-76.52c-2.762 0-5 2.239-5 5s2.238 5 5 5z" fill="#ff6c6c"/></g></g><g fill="#ff6c6c"><circle cx="418.792" cy="247.916" r="5"/><circle cx="402.542" cy="247.916" r="5"/></g></g></g></g></g></svg>