<svg id="Capa_1" enable-background="new 0 0 510 510" height="512" viewBox="0 0 510 510" width="512" xmlns="http://www.w3.org/2000/svg"><g><g id="XMLID_1102_"><path id="XMLID_1306_" d="m0 135v300l120 30 135-30 15-180-15-120-120-30z" fill="#e6f2ff"/><path id="XMLID_1305_" d="m510 90c-16.3-3.6-118.6-26.3-135-30l-75 15-45 60v300l135 30 120-30c0-15.4 0-330.1 0-345z" fill="#cdf"/><path id="XMLID_1301_" d="m0 435v75h255l15-37.5-15-37.5c-7.2 0-247.8 0-255 0z" fill="#7ed8f6"/><path id="XMLID_1300_" d="m510 435c-7.2 0-247.8 0-255 0v75h255c0-20.2 0-63.2 0-75z" fill="#6aa9ff"/><path id="XMLID_1299_" d="m510 90c0-10.9 0-79 0-90-4.9 0-168.9 0-173.8 0l-36.2 45 2.1 45z" fill="#182a4c"/><path id="XMLID_1293_" d="m0 0v135h255l15-67.5-15-67.5c-7.2 0-247.8 0-255 0z" fill="#4e588b"/><path id="XMLID_1290_" d="m336.2 0c-15.7 0-65.8 0-81.2 0v135h30c5.4-14.2 46-121.3 51.2-135z" fill="#293e65"/><path id="XMLID_1105_" d="m120 195v180l50.7-30 50.7-71.3-41.4-39.4-59.3-39.3c-.1 0-.8 0-.7 0z" fill="#fec258"/><path id="XMLID_1275_" d="m390 375c0-5.1 0-174.2 0-179.3l-50.6 29.3-50.6 48.8 26.2 50.6z" fill="#fd996b"/><path id="XMLID_1253_" d="m221.3 273.7c-5.6 5.6-95.7 95.7-101.3 101.3h135l15-37.5-15-37.5-16.8-30z" fill="#fd996b"/><path id="XMLID_1249_" d="m288.8 273.8-16.9-3.8-16.9 30v75h135c-5.6-5.6-95.5-95.5-101.2-101.2z" fill="#fd676a"/><path id="XMLID_1248_" d="m120.7 195c26.7 20.9 106.2 83 134.3 105l15-52.5-15-52.5c-16.3 0-118 0-134.3 0z" fill="#fee05b"/><path id="XMLID_1152_" d="m390 195.7c0-.1 0-.8 0-.7-16.3 0-118.6 0-135 0v105c14.5-11.2 119.2-92.1 135-104.3z" fill="#fec258"/></g><path d="m120 60h30v30h-30z" fill="#fee05b"/><path d="m59 60h30v30h-30z" fill="#fd676a"/><path d="m180 60h30v30h-30z" fill="#8ee26b"/></g></svg>