<?xml version="1.0"?>
<svg xmlns="http://www.w3.org/2000/svg" xmlns:xlink="http://www.w3.org/1999/xlink" xmlns:svgjs="http://svgjs.com/svgjs" version="1.1" width="512" height="512" x="0" y="0" viewBox="0 0 482 482" style="enable-background:new 0 0 512 512" xml:space="preserve" class=""><g><g xmlns="http://www.w3.org/2000/svg"><path d="m0 140.5v336h241l23-164-23-172-113-28z" fill="#f5f8f9" data-original="#f5f8f9" style="" class=""/><path d="m482 140.5-115-33-126 33v336h241z" fill="#e3eaee" data-original="#e3eaee" style="" class=""/><path d="m0 50.5v90h241l19-43-19-47z" fill="#ff7e44" data-original="#ff3f5c" style="" class=""/><path d="m241 50.5h241v90h-241z" fill="#fa933f" data-original="#ca2e43" style="" class=""/><path d="m105.5 5.5h30v90h-30z" fill="#c2bce0" data-original="#c2bce0" style="" class=""/><path d="m346.5 5.5h30v90h-30z" fill="#a299d1" data-original="#a299d1" style="" class=""/><path d="m407.256 406.206-25.113-16.412c15.607-23.882 23.857-51.647 23.857-80.294s-8.25-56.412-23.857-80.294l25.113-16.412c18.805 28.773 28.744 62.214 28.744 96.706s-9.939 67.933-28.744 96.706z" fill="#463b84" data-original="#463b84" style=""/><path d="m74.744 406.206c-18.805-28.773-28.744-62.214-28.744-96.706s9.939-67.933 28.744-96.706l25.113 16.412c-15.607 23.882-23.857 51.647-23.857 80.294s8.25 56.412 23.857 80.294z" fill="#6e61b6" data-original="#6e61b6" style="" class=""/><path d="m226 378.19v49.31h15l8-24-8-25.31z" fill="#6e61b6" data-original="#6e61b6" style="" class=""/><path d="m241 378.19h15v49.31h-15z" fill="#463b84" data-original="#463b84" style=""/><path d="m169 275.5v45.846l-31.5 75.154h103.5l19-93-19-100c-39.701 0-72 32.299-72 72z" fill="#ffcc66" data-original="#ffcc66" style="" class=""/><path d="m313 321.346v-45.846c0-39.701-32.299-72-72-72v193h103.5z" fill="#ffa64d" data-original="#ffa64d" style="" class=""/></g></g></svg>
