<svg id="bold" enable-background="new 0 0 32 32" height="512" viewBox="0 0 32 32" width="512" xmlns="http://www.w3.org/2000/svg"><path d="m26 32h-20c-3.314 0-6-2.686-6-6v-20c0-3.314 2.686-6 6-6h20c3.314 0 6 2.686 6 6v20c0 3.314-2.686 6-6 6z" fill="#ffe6e2"/><path d="m16.167 9.333h-.733c-.221-.766-.927-1.333-1.767-1.333s-1.547.567-1.767 1.333h-.733c-.273 0-.5.227-.5.5v1c0 .64.527 1.167 1.167 1.167h3.666c.64 0 1.167-.527 1.167-1.167v-1c0-.273-.227-.5-.5-.5z" fill="#fd907e"/><path d="m17.5 10h-.167v.833c0 1.013-.82 1.833-1.833 1.833h-3.667c-1.013 0-1.833-.82-1.833-1.833v-.833h-.167c-1.013 0-1.833.82-1.833 1.833v8.333c0 1.014.82 1.834 1.833 1.834h4.92l.147-.82c.067-.373.24-.707.507-.98l.533-.533h-5.44c-.273 0-.5-.227-.5-.5s.227-.5.5-.5h6.333c.033 0 .06 0 .093.013h.007l2.4-2.4v-4.447c0-1.013-.82-1.833-1.833-1.833zm-.667 7.5h-6.333c-.273 0-.5-.227-.5-.5s.227-.5.5-.5h6.333c.273 0 .5.227.5.5s-.226.5-.5.5zm0-2.167h-6.333c-.273 0-.5-.227-.5-.5s.227-.5.5-.5h6.333c.273 0 .5.227.5.5 0 .274-.226.5-.5.5z" fill="#fc573b"/><path d="m16.351 24c-.132 0-.259-.052-.354-.146-.115-.115-.167-.28-.139-.44l.354-2.004c.018-.101.066-.194.139-.267l4.95-4.95c.608-.609 1.205-.445 1.532-.118l.825.825c.455.455.455 1.195 0 1.65l-4.95 4.95c-.072.073-.165.121-.267.139l-2.003.354c-.029.004-.058.007-.087.007zm2.004-.853h.007z" fill="#fd907e"/></svg>